<?xml version="1.0" encoding="utf-8"?>
<!-- Generator: Adobe Illustrator 24.2.3, SVG Export Plug-In . SVG Version: 6.00 Build 0)  -->
<svg version="1.1" id="Layer_1" xmlns="http://www.w3.org/2000/svg" xmlns:xlink="http://www.w3.org/1999/xlink" x="0px" y="0px"
	 viewBox="0 0 384 384" style="enable-background:new 0 0 384 384;" xml:space="preserve">
<style type="text/css">
	.st0{fill:#FFFFFF;}
	.st1{fill:none;stroke:#FFFFFF;stroke-miterlimit:10;}
</style>
<g id="XMLID_1_">
	<g>
		<path class="st0" d="M362.7,282.8v70.4c0,5.2-4.2,9.5-9.5,9.5c-183,0-331.9-148.9-331.9-331.9c0-5.2,4.2-9.5,9.5-9.5h70.5
			c5.2,0,9.5,4.2,9.5,9.5c0,25.5,4,50.9,12,75.1c1.1,3.5,0.2,7.2-3.4,10.9l-36.7,48.6c-2.5,3.2-2.8,7.6-1,11.3
			c29.9,58.8,66.3,95.2,125.5,125.5c3.6,1.9,8,1.5,11.3-1l49.7-37.6c2.5-2.5,6.3-3.4,9.7-2.2c24.3,8,49.7,12,75.3,12
			C358.4,273.4,362.7,277.6,362.7,282.8z"/>
		<path d="M384,282.9v70.3c0,17-13.8,30.8-30.8,30.8C158.4,384,0,225.6,0,30.8C0,13.8,13.8,0,30.8,0h70.5c17,0,30.7,13.8,30.8,30.8
			c0,23.3,3.7,46.5,11,68.6c3.6,11.1,0.6,23.2-7.6,31.5l-31.6,42c26.4,49.7,57.2,80.5,107.3,107.3l43.2-32.6
			c7.1-7.2,19.5-10.1,30.4-6.4c22.1,7.3,45.2,10.9,68.5,10.9C370.2,252.1,384,265.9,384,282.9z M362.7,353.2v-70.4
			c0-5.2-4.2-9.5-9.5-9.5c-25.6,0-51-4-75.3-12c-3.4-1.1-7.1-0.3-9.7,2.2l-49.7,37.6c-3.3,2.5-7.7,2.9-11.3,1
			c-59.2-30.4-95.6-66.7-125.5-125.5c-1.8-3.6-1.5-8,1-11.3l36.7-48.6c3.6-3.7,4.5-7.4,3.4-10.9c-8-24.2-12-49.6-12-75.1
			c0-5.2-4.2-9.5-9.5-9.5H30.8c-5.2,0-9.5,4.2-9.5,9.5c0,183,148.9,331.9,331.9,331.9C358.4,362.7,362.7,358.4,362.7,353.2z"/>
	</g>
	<g>
		<path class="st1" d="M353.2,252.1c-23.3,0-46.4-3.6-68.5-10.9c-10.9-3.7-23.3-0.8-30.4,6.4l-43.2,32.6
			c-50.1-26.7-80.9-57.6-107.3-107.3l31.6-42c8.2-8.2,11.2-20.4,7.6-31.5c-7.3-22.1-11-45.3-11-68.6c0-17-13.8-30.8-30.8-30.8H30.8
			C13.8,0,0,13.8,0,30.8C0,225.6,158.4,384,353.2,384c17,0,30.8-13.8,30.8-30.8v-70.3C384,265.9,370.2,252.1,353.2,252.1z"/>
		<path class="st1" d="M362.7,353.2c0,5.2-4.2,9.5-9.5,9.5c-183,0-331.9-148.9-331.9-331.9c0-5.2,4.2-9.5,9.5-9.5h70.5
			c5.2,0,9.5,4.2,9.5,9.5c0,25.5,4,50.9,12,75.1c1.1,3.5,0.2,7.2-3.4,10.9l-36.7,48.6c-2.5,3.2-2.8,7.6-1,11.3
			c29.9,58.8,66.3,95.2,125.5,125.5c3.6,1.9,8,1.5,11.3-1l49.7-37.6c2.5-2.5,6.3-3.4,9.7-2.2c24.3,8,49.7,12,75.3,12
			c5.2,0,9.5,4.2,9.5,9.5V353.2z"/>
	</g>
</g>
</svg>
